<svg id="visual" viewBox="0 0 960 540" width="960" height="540" xmlns="http://www.w3.org/2000/svg" xmlns:xlink="http://www.w3.org/1999/xlink" version="1.1"><rect x="0" y="0" width="960" height="540" fill="#0066FF"></rect><path d="M0 231L10.7 255.7C21.3 280.3 42.7 329.7 64 364.7C85.3 399.7 106.7 420.3 128 383.5C149.3 346.7 170.7 252.3 192 208.2C213.3 164 234.7 170 256 215.8C277.3 261.7 298.7 347.3 320 376.3C341.3 405.3 362.7 377.7 384 343.5C405.3 309.3 426.7 268.7 448 252C469.3 235.3 490.7 242.7 512 232.2C533.3 221.7 554.7 193.3 576 225.8C597.3 258.3 618.7 351.7 640 348.8C661.3 346 682.7 247 704 201.2C725.3 155.3 746.7 162.7 768 154.2C789.3 145.7 810.7 121.3 832 140.5C853.3 159.7 874.7 222.3 896 265.2C917.3 308 938.7 331 949.3 342.5L960 354L960 541L949.3 541C938.7 541 917.3 541 896 541C874.7 541 853.3 541 832 541C810.7 541 789.3 541 768 541C746.7 541 725.3 541 704 541C682.7 541 661.3 541 640 541C618.7 541 597.3 541 576 541C554.7 541 533.3 541 512 541C490.7 541 469.3 541 448 541C426.7 541 405.3 541 384 541C362.7 541 341.3 541 320 541C298.7 541 277.3 541 256 541C234.7 541 213.3 541 192 541C170.7 541 149.3 541 128 541C106.7 541 85.3 541 64 541C42.7 541 21.3 541 10.7 541L0 541Z" fill="#00cc8e"></path><path d="M0 416L10.7 371.3C21.3 326.7 42.7 237.3 64 196.2C85.3 155 106.7 162 128 202.3C149.3 242.7 170.7 316.3 192 320.8C213.3 325.3 234.7 260.7 256 234C277.3 207.3 298.7 218.7 320 236.8C341.3 255 362.7 280 384 303.5C405.3 327 426.7 349 448 345.2C469.3 341.3 490.7 311.7 512 293.8C533.3 276 554.7 270 576 255.5C597.3 241 618.7 218 640 235C661.3 252 682.7 309 704 352.2C725.3 395.3 746.7 424.7 768 396.8C789.3 369 810.7 284 832 242.2C853.3 200.3 874.7 201.7 896 227.8C917.3 254 938.7 305 949.3 330.5L960 356L960 541L949.3 541C938.7 541 917.3 541 896 541C874.7 541 853.3 541 832 541C810.7 541 789.3 541 768 541C746.7 541 725.3 541 704 541C682.7 541 661.3 541 640 541C618.7 541 597.3 541 576 541C554.7 541 533.3 541 512 541C490.7 541 469.3 541 448 541C426.7 541 405.3 541 384 541C362.7 541 341.3 541 320 541C298.7 541 277.3 541 256 541C234.7 541 213.3 541 192 541C170.7 541 149.3 541 128 541C106.7 541 85.3 541 64 541C42.7 541 21.3 541 10.7 541L0 541Z" fill="#00c58d"></path><path d="M0 283L10.7 311.5C21.3 340 42.7 397 64 381.3C85.3 365.7 106.7 277.3 128 238.8C149.3 200.3 170.7 211.7 192 239.5C213.3 267.3 234.7 311.7 256 328.5C277.3 345.3 298.7 334.7 320 352.7C341.3 370.7 362.7 417.3 384 417C405.3 416.7 426.7 369.3 448 359.2C469.3 349 490.7 376 512 349.7C533.3 323.3 554.7 243.7 576 237.2C597.3 230.7 618.7 297.3 640 297.2C661.3 297 682.7 230 704 233.8C725.3 237.7 746.7 312.3 768 333.7C789.3 355 810.7 323 832 310.5C853.3 298 874.7 305 896 320.8C917.3 336.7 938.7 361.3 949.3 373.7L960 386L960 541L949.3 541C938.7 541 917.3 541 896 541C874.7 541 853.3 541 832 541C810.7 541 789.3 541 768 541C746.7 541 725.3 541 704 541C682.7 541 661.3 541 640 541C618.7 541 597.3 541 576 541C554.7 541 533.3 541 512 541C490.7 541 469.3 541 448 541C426.7 541 405.3 541 384 541C362.7 541 341.3 541 320 541C298.7 541 277.3 541 256 541C234.7 541 213.3 541 192 541C170.7 541 149.3 541 128 541C106.7 541 85.3 541 64 541C42.7 541 21.3 541 10.7 541L0 541Z" fill="#00bf8b"></path><path d="M0 248L10.7 250.8C21.3 253.7 42.7 259.3 64 249C85.3 238.7 106.7 212.3 128 224C149.3 235.7 170.7 285.3 192 290C213.3 294.7 234.7 254.3 256 250.8C277.3 247.3 298.7 280.7 320 314.7C341.3 348.7 362.7 383.3 384 365.7C405.3 348 426.7 278 448 265.3C469.3 252.7 490.7 297.3 512 318.7C533.3 340 554.7 338 576 316.7C597.3 295.3 618.7 254.7 640 254C661.3 253.3 682.7 292.7 704 291.3C725.3 290 746.7 248 768 238C789.3 228 810.7 250 832 251.2C853.3 252.3 874.7 232.7 896 218.5C917.3 204.3 938.7 195.7 949.3 191.3L960 187L960 541L949.3 541C938.7 541 917.3 541 896 541C874.7 541 853.3 541 832 541C810.7 541 789.3 541 768 541C746.7 541 725.3 541 704 541C682.7 541 661.3 541 640 541C618.7 541 597.3 541 576 541C554.7 541 533.3 541 512 541C490.7 541 469.3 541 448 541C426.7 541 405.3 541 384 541C362.7 541 341.3 541 320 541C298.7 541 277.3 541 256 541C234.7 541 213.3 541 192 541C170.7 541 149.3 541 128 541C106.7 541 85.3 541 64 541C42.7 541 21.3 541 10.7 541L0 541Z" fill="#00b889"></path><path d="M0 247L10.7 261.8C21.3 276.7 42.7 306.3 64 319C85.3 331.7 106.7 327.3 128 347C149.3 366.7 170.7 410.3 192 397.7C213.3 385 234.7 316 256 310.2C277.3 304.3 298.7 361.7 320 361C341.3 360.3 362.7 301.7 384 272.2C405.3 242.7 426.7 242.3 448 238.8C469.3 235.3 490.7 228.7 512 254.2C533.3 279.7 554.7 337.3 576 362.3C597.3 387.3 618.7 379.7 640 386.7C661.3 393.7 682.7 415.3 704 432.5C725.3 449.7 746.7 462.3 768 426.7C789.3 391 810.7 307 832 289.8C853.3 272.7 874.7 322.3 896 356C917.3 389.7 938.7 407.3 949.3 416.2L960 425L960 541L949.3 541C938.7 541 917.3 541 896 541C874.7 541 853.3 541 832 541C810.7 541 789.3 541 768 541C746.7 541 725.3 541 704 541C682.7 541 661.3 541 640 541C618.7 541 597.3 541 576 541C554.7 541 533.3 541 512 541C490.7 541 469.3 541 448 541C426.7 541 405.3 541 384 541C362.7 541 341.3 541 320 541C298.7 541 277.3 541 256 541C234.7 541 213.3 541 192 541C170.7 541 149.3 541 128 541C106.7 541 85.3 541 64 541C42.7 541 21.3 541 10.7 541L0 541Z" fill="#00b187"></path><path d="M0 345L10.7 342.8C21.3 340.7 42.7 336.3 64 351.3C85.3 366.3 106.7 400.7 128 412.5C149.3 424.3 170.7 413.7 192 416.8C213.3 420 234.7 437 256 429.7C277.3 422.3 298.7 390.7 320 367.3C341.3 344 362.7 329 384 334.5C405.3 340 426.7 366 448 392.7C469.3 419.3 490.7 446.7 512 445.2C533.3 443.7 554.7 413.3 576 405.2C597.3 397 618.7 411 640 402.2C661.3 393.3 682.7 361.7 704 357.7C725.3 353.7 746.7 377.3 768 368.2C789.3 359 810.7 317 832 327.2C853.3 337.3 874.7 399.7 896 402.2C917.3 404.7 938.7 347.3 949.3 318.7L960 290L960 541L949.3 541C938.7 541 917.3 541 896 541C874.7 541 853.3 541 832 541C810.7 541 789.3 541 768 541C746.7 541 725.3 541 704 541C682.7 541 661.3 541 640 541C618.7 541 597.3 541 576 541C554.7 541 533.3 541 512 541C490.7 541 469.3 541 448 541C426.7 541 405.3 541 384 541C362.7 541 341.3 541 320 541C298.7 541 277.3 541 256 541C234.7 541 213.3 541 192 541C170.7 541 149.3 541 128 541C106.7 541 85.3 541 64 541C42.7 541 21.3 541 10.7 541L0 541Z" fill="#00aa85"></path><path d="M0 479L10.7 480.7C21.3 482.3 42.7 485.7 64 470.2C85.3 454.7 106.7 420.3 128 400.2C149.3 380 170.7 374 192 374.3C213.3 374.7 234.7 381.3 256 401.3C277.3 421.3 298.7 454.7 320 441.8C341.3 429 362.7 370 384 353.3C405.3 336.7 426.7 362.3 448 387.8C469.3 413.3 490.7 438.7 512 445.3C533.3 452 554.7 440 576 436.7C597.3 433.3 618.7 438.7 640 429.2C661.3 419.7 682.7 395.3 704 386.8C725.3 378.3 746.7 385.7 768 395.8C789.3 406 810.7 419 832 407.3C853.3 395.7 874.7 359.3 896 338.7C917.3 318 938.7 313 949.3 310.5L960 308L960 541L949.3 541C938.7 541 917.3 541 896 541C874.7 541 853.3 541 832 541C810.7 541 789.3 541 768 541C746.7 541 725.3 541 704 541C682.7 541 661.3 541 640 541C618.7 541 597.3 541 576 541C554.7 541 533.3 541 512 541C490.7 541 469.3 541 448 541C426.7 541 405.3 541 384 541C362.7 541 341.3 541 320 541C298.7 541 277.3 541 256 541C234.7 541 213.3 541 192 541C170.7 541 149.3 541 128 541C106.7 541 85.3 541 64 541C42.7 541 21.3 541 10.7 541L0 541Z" fill="#00a483"></path><path d="M0 500L10.7 479.8C21.3 459.7 42.7 419.3 64 405.7C85.3 392 106.7 405 128 423.5C149.3 442 170.7 466 192 477.8C213.3 489.7 234.7 489.3 256 470.2C277.3 451 298.7 413 320 409.5C341.3 406 362.7 437 384 440.7C405.3 444.3 426.7 420.7 448 421.8C469.3 423 490.7 449 512 461.7C533.3 474.3 554.7 473.7 576 463.2C597.3 452.7 618.7 432.3 640 414.3C661.3 396.3 682.7 380.7 704 372.3C725.3 364 746.7 363 768 359.7C789.3 356.3 810.7 350.7 832 346.5C853.3 342.3 874.7 339.7 896 352C917.3 364.3 938.7 391.7 949.3 405.3L960 419L960 541L949.3 541C938.7 541 917.3 541 896 541C874.7 541 853.3 541 832 541C810.7 541 789.3 541 768 541C746.7 541 725.3 541 704 541C682.7 541 661.3 541 640 541C618.7 541 597.3 541 576 541C554.7 541 533.3 541 512 541C490.7 541 469.3 541 448 541C426.7 541 405.3 541 384 541C362.7 541 341.3 541 320 541C298.7 541 277.3 541 256 541C234.7 541 213.3 541 192 541C170.7 541 149.3 541 128 541C106.7 541 85.3 541 64 541C42.7 541 21.3 541 10.7 541L0 541Z" fill="#009d80"></path><path d="M0 436L10.7 436.5C21.3 437 42.7 438 64 432.5C85.3 427 106.7 415 128 416.7C149.3 418.3 170.7 433.7 192 450.3C213.3 467 234.7 485 256 478C277.3 471 298.7 439 320 428.7C341.3 418.3 362.7 429.7 384 428C405.3 426.3 426.7 411.7 448 422.2C469.3 432.7 490.7 468.3 512 463.8C533.3 459.3 554.7 414.7 576 412.7C597.3 410.7 618.7 451.3 640 469.7C661.3 488 682.7 484 704 470.7C725.3 457.3 746.7 434.7 768 417.5C789.3 400.3 810.7 388.7 832 384C853.3 379.3 874.7 381.7 896 380.5C917.3 379.3 938.7 374.7 949.3 372.3L960 370L960 541L949.3 541C938.7 541 917.3 541 896 541C874.7 541 853.3 541 832 541C810.7 541 789.3 541 768 541C746.7 541 725.3 541 704 541C682.7 541 661.3 541 640 541C618.7 541 597.3 541 576 541C554.7 541 533.3 541 512 541C490.7 541 469.3 541 448 541C426.7 541 405.3 541 384 541C362.7 541 341.3 541 320 541C298.7 541 277.3 541 256 541C234.7 541 213.3 541 192 541C170.7 541 149.3 541 128 541C106.7 541 85.3 541 64 541C42.7 541 21.3 541 10.7 541L0 541Z" fill="#00977d"></path><path d="M0 503L10.7 495.7C21.3 488.3 42.7 473.7 64 460.5C85.3 447.3 106.7 435.7 128 428.2C149.3 420.7 170.7 417.3 192 420.8C213.3 424.3 234.7 434.7 256 432.3C277.3 430 298.7 415 320 421.2C341.3 427.3 362.7 454.7 384 458.3C405.3 462 426.7 442 448 445.2C469.3 448.3 490.7 474.7 512 482.2C533.3 489.7 554.7 478.3 576 480.5C597.3 482.7 618.7 498.3 640 490.5C661.3 482.7 682.7 451.3 704 443C725.3 434.7 746.7 449.3 768 463.8C789.3 478.3 810.7 492.7 832 485.8C853.3 479 874.7 451 896 447C917.3 443 938.7 463 949.3 473L960 483L960 541L949.3 541C938.7 541 917.3 541 896 541C874.7 541 853.3 541 832 541C810.7 541 789.3 541 768 541C746.7 541 725.3 541 704 541C682.7 541 661.3 541 640 541C618.7 541 597.3 541 576 541C554.7 541 533.3 541 512 541C490.7 541 469.3 541 448 541C426.7 541 405.3 541 384 541C362.7 541 341.3 541 320 541C298.7 541 277.3 541 256 541C234.7 541 213.3 541 192 541C170.7 541 149.3 541 128 541C106.7 541 85.3 541 64 541C42.7 541 21.3 541 10.7 541L0 541Z" fill="#00907a"></path><path d="M0 494L10.7 493.8C21.3 493.7 42.7 493.3 64 492C85.3 490.7 106.7 488.3 128 488.3C149.3 488.3 170.7 490.7 192 491C213.3 491.3 234.7 489.7 256 483.2C277.3 476.7 298.7 465.3 320 468.8C341.3 472.3 362.7 490.7 384 493.8C405.3 497 426.7 485 448 472.7C469.3 460.3 490.7 447.7 512 447.7C533.3 447.7 554.7 460.3 576 463C597.3 465.7 618.7 458.3 640 459.5C661.3 460.7 682.7 470.3 704 468.7C725.3 467 746.7 454 768 460.3C789.3 466.7 810.7 492.3 832 502.5C853.3 512.7 874.7 507.3 896 503.5C917.3 499.7 938.7 497.3 949.3 496.2L960 495L960 541L949.3 541C938.7 541 917.3 541 896 541C874.7 541 853.3 541 832 541C810.7 541 789.3 541 768 541C746.7 541 725.3 541 704 541C682.7 541 661.3 541 640 541C618.7 541 597.3 541 576 541C554.7 541 533.3 541 512 541C490.7 541 469.3 541 448 541C426.7 541 405.3 541 384 541C362.7 541 341.3 541 320 541C298.7 541 277.3 541 256 541C234.7 541 213.3 541 192 541C170.7 541 149.3 541 128 541C106.7 541 85.3 541 64 541C42.7 541 21.3 541 10.7 541L0 541Z" fill="#008977"></path><path d="M0 506L10.7 504.5C21.3 503 42.7 500 64 501.2C85.3 502.3 106.7 507.7 128 503.5C149.3 499.3 170.7 485.7 192 483.3C213.3 481 234.7 490 256 491.8C277.3 493.7 298.7 488.3 320 485.7C341.3 483 362.7 483 384 481.5C405.3 480 426.7 477 448 476.5C469.3 476 490.7 478 512 486.2C533.3 494.3 554.7 508.7 576 507.7C597.3 506.7 618.7 490.3 640 488.7C661.3 487 682.7 500 704 507.5C725.3 515 746.7 517 768 518.5C789.3 520 810.7 521 832 515.3C853.3 509.7 874.7 497.3 896 488.8C917.3 480.3 938.7 475.7 949.3 473.3L960 471L960 541L949.3 541C938.7 541 917.3 541 896 541C874.7 541 853.3 541 832 541C810.7 541 789.3 541 768 541C746.7 541 725.3 541 704 541C682.7 541 661.3 541 640 541C618.7 541 597.3 541 576 541C554.7 541 533.3 541 512 541C490.7 541 469.3 541 448 541C426.7 541 405.3 541 384 541C362.7 541 341.3 541 320 541C298.7 541 277.3 541 256 541C234.7 541 213.3 541 192 541C170.7 541 149.3 541 128 541C106.7 541 85.3 541 64 541C42.7 541 21.3 541 10.7 541L0 541Z" fill="#038373"></path></svg>