<svg id="visual" viewBox="0 0 960 540" width="960" height="540" xmlns="http://www.w3.org/2000/svg" xmlns:xlink="http://www.w3.org/1999/xlink" version="1.1"><path d="M0 114L22.8 115.8C45.7 117.7 91.3 121.3 137 127.7C182.7 134 228.3 143 274 143C319.7 143 365.3 134 411.2 128.7C457 123.3 503 121.7 548.8 122.7C594.7 123.7 640.3 127.3 686 125.5C731.7 123.7 777.3 116.3 823 116.3C868.7 116.3 914.3 123.7 937.2 127.3L960 131L960 0L937.2 0C914.3 0 868.7 0 823 0C777.3 0 731.7 0 686 0C640.3 0 594.7 0 548.8 0C503 0 457 0 411.2 0C365.3 0 319.7 0 274 0C228.3 0 182.7 0 137 0C91.3 0 45.7 0 22.8 0L0 0Z" fill="#0066ff"></path><path d="M0 147L22.8 147.8C45.7 148.7 91.3 150.3 137 155.7C182.7 161 228.3 170 274 171C319.7 172 365.3 165 411.2 162.3C457 159.7 503 161.3 548.8 162.2C594.7 163 640.3 163 686 160.3C731.7 157.7 777.3 152.3 823 152.3C868.7 152.3 914.3 157.7 937.2 160.3L960 163L960 129L937.2 125.3C914.3 121.7 868.7 114.3 823 114.3C777.3 114.3 731.7 121.7 686 123.5C640.3 125.3 594.7 121.7 548.8 120.7C503 119.7 457 121.3 411.2 126.7C365.3 132 319.7 141 274 141C228.3 141 182.7 132 137 125.7C91.3 119.3 45.7 115.7 22.8 113.8L0 112Z" fill="#0096fe"></path><path d="M0 249L22.8 254.5C45.7 260 91.3 271 137 275.5C182.7 280 228.3 278 274 273.5C319.7 269 365.3 262 411.2 263C457 264 503 273 548.8 274.8C594.7 276.7 640.3 271.3 686 269.5C731.7 267.7 777.3 269.3 823 268.3C868.7 267.3 914.3 263.7 937.2 261.8L960 260L960 161L937.2 158.3C914.3 155.7 868.7 150.3 823 150.3C777.3 150.3 731.7 155.7 686 158.3C640.3 161 594.7 161 548.8 160.2C503 159.3 457 157.7 411.2 160.3C365.3 163 319.7 170 274 169C228.3 168 182.7 159 137 153.7C91.3 148.3 45.7 146.7 22.8 145.8L0 145Z" fill="#00b8ec"></path><path d="M0 282L22.8 287.3C45.7 292.7 91.3 303.3 137 307.8C182.7 312.3 228.3 310.7 274 305.3C319.7 300 365.3 291 411.2 291C457 291 503 300 548.8 301.8C594.7 303.7 640.3 298.3 686 297.3C731.7 296.3 777.3 299.7 823 298.7C868.7 297.7 914.3 292.3 937.2 289.7L960 287L960 258L937.2 259.8C914.3 261.7 868.7 265.3 823 266.3C777.3 267.3 731.7 265.7 686 267.5C640.3 269.3 594.7 274.7 548.8 272.8C503 271 457 262 411.2 261C365.3 260 319.7 267 274 271.5C228.3 276 182.7 278 137 273.5C91.3 269 45.7 258 22.8 252.5L0 247Z" fill="#00cba2"></path><path d="M0 320L22.8 323.5C45.7 327 91.3 334 137 337.5C182.7 341 228.3 341 274 337.5C319.7 334 365.3 327 411.2 326.2C457 325.3 503 330.7 548.8 331.5C594.7 332.3 640.3 328.7 686 328.7C731.7 328.7 777.3 332.3 823 331.5C868.7 330.7 914.3 325.3 937.2 322.7L960 320L960 285L937.2 287.7C914.3 290.3 868.7 295.7 823 296.7C777.3 297.7 731.7 294.3 686 295.3C640.3 296.3 594.7 301.7 548.8 299.8C503 298 457 289 411.2 289C365.3 289 319.7 298 274 303.3C228.3 308.7 182.7 310.3 137 305.8C91.3 301.3 45.7 290.7 22.8 285.3L0 280Z" fill="#00cc8e"></path><path d="M0 390L22.8 393.5C45.7 397 91.3 404 137 406.7C182.7 409.3 228.3 407.7 274 406.8C319.7 406 365.3 406 411.2 407.8C457 409.7 503 413.3 548.8 412.5C594.7 411.7 640.3 406.3 686 405.3C731.7 404.3 777.3 407.7 823 407.7C868.7 407.7 914.3 404.3 937.2 402.7L960 401L960 318L937.2 320.7C914.3 323.3 868.7 328.7 823 329.5C777.3 330.3 731.7 326.7 686 326.7C640.3 326.7 594.7 330.3 548.8 329.5C503 328.7 457 323.3 411.2 324.2C365.3 325 319.7 332 274 335.5C228.3 339 182.7 339 137 335.5C91.3 332 45.7 325 22.8 321.5L0 318Z" fill="#00cba2"></path><path d="M0 444L22.8 444.8C45.7 445.7 91.3 447.3 137 449.2C182.7 451 228.3 453 274 452.2C319.7 451.3 365.3 447.7 411.2 447.7C457 447.7 503 451.3 548.8 451.3C594.7 451.3 640.3 447.7 686 446.7C731.7 445.7 777.3 447.3 823 449.2C868.7 451 914.3 453 937.2 454L960 455L960 399L937.2 400.7C914.3 402.3 868.7 405.7 823 405.7C777.3 405.7 731.7 402.3 686 403.3C640.3 404.3 594.7 409.7 548.8 410.5C503 411.3 457 407.7 411.2 405.8C365.3 404 319.7 404 274 404.8C228.3 405.7 182.7 407.3 137 404.7C91.3 402 45.7 395 22.8 391.5L0 388Z" fill="#00b8ec"></path><path d="M0 476L22.8 477C45.7 478 91.3 480 137 483.7C182.7 487.3 228.3 492.7 274 492.7C319.7 492.7 365.3 487.3 411.2 485.5C457 483.7 503 485.3 548.8 485.3C594.7 485.3 640.3 483.7 686 483.7C731.7 483.7 777.3 485.3 823 487C868.7 488.7 914.3 490.3 937.2 491.2L960 492L960 453L937.2 452C914.3 451 868.7 449 823 447.2C777.3 445.3 731.7 443.7 686 444.7C640.3 445.7 594.7 449.3 548.8 449.3C503 449.3 457 445.7 411.2 445.7C365.3 445.7 319.7 449.3 274 450.2C228.3 451 182.7 449 137 447.2C91.3 445.3 45.7 443.7 22.8 442.8L0 442Z" fill="#0096fe"></path><path d="M0 541L22.8 541C45.7 541 91.3 541 137 541C182.7 541 228.3 541 274 541C319.7 541 365.3 541 411.2 541C457 541 503 541 548.8 541C594.7 541 640.3 541 686 541C731.7 541 777.3 541 823 541C868.7 541 914.3 541 937.2 541L960 541L960 490L937.2 489.2C914.3 488.3 868.7 486.7 823 485C777.3 483.3 731.7 481.7 686 481.7C640.3 481.7 594.7 483.3 548.8 483.3C503 483.3 457 481.7 411.2 483.5C365.3 485.3 319.7 490.7 274 490.7C228.3 490.7 182.7 485.3 137 481.7C91.3 478 45.7 476 22.8 475L0 474Z" fill="#0066ff"></path></svg>