<svg id="visual" viewBox="0 0 960 540" width="960" height="540" xmlns="http://www.w3.org/2000/svg" xmlns:xlink="http://www.w3.org/1999/xlink" version="1.1"><path d="M0 82L87 50L175 98L262 77L349 87L436 82L524 50L611 82L698 98L785 71L873 82L960 55L960 0L873 0L785 0L698 0L611 0L524 0L436 0L349 0L262 0L175 0L87 0L0 0Z" fill="#0066ff"></path><path d="M0 212L87 136L175 179L262 168L349 147L436 190L524 168L611 201L698 212L785 152L873 228L960 147L960 53L873 80L785 69L698 96L611 80L524 48L436 80L349 85L262 75L175 96L87 48L0 80Z" fill="#008eff"></path><path d="M0 249L87 190L175 233L262 201L349 212L436 271L524 239L611 233L698 293L785 239L873 271L960 233L960 145L873 226L785 150L698 210L611 199L524 166L436 188L349 145L262 166L175 177L87 134L0 210Z" fill="#00acf2"></path><path d="M0 433L87 401L175 325L262 428L349 406L436 422L524 384L611 390L698 465L785 325L873 428L960 379L960 231L873 269L785 237L698 291L611 231L524 237L436 269L349 210L262 199L175 231L87 188L0 247Z" fill="#00c2d7"></path><path d="M0 541L87 541L175 541L262 541L349 541L436 541L524 541L611 541L698 541L785 541L873 541L960 541L960 377L873 426L785 323L698 463L611 388L524 382L436 420L349 404L262 426L175 323L87 399L0 431Z" fill="#00cc8e"></path></svg>