<svg id="visual" viewBox="0 0 900 600" width="900" height="600" xmlns="http://www.w3.org/2000/svg" xmlns:xlink="http://www.w3.org/1999/xlink" version="1.1"><rect x="0" y="0" width="900" height="600" fill="#0066FF"></rect><path d="M0 388L129 225L257 182L386 159L514 297L643 231L771 297L900 209L900 601L771 601L643 601L514 601L386 601L257 601L129 601L0 601Z" fill="#00cc8e"></path><path d="M0 261L129 439L257 273L386 319L514 266L643 421L771 328L900 374L900 601L771 601L643 601L514 601L386 601L257 601L129 601L0 601Z" fill="#00c58d"></path><path d="M0 283L129 333L257 249L386 317L514 461L643 269L771 280L900 376L900 601L771 601L643 601L514 601L386 601L257 601L129 601L0 601Z" fill="#00bf8b"></path><path d="M0 371L129 455L257 370L386 365L514 448L643 424L771 441L900 286L900 601L771 601L643 601L514 601L386 601L257 601L129 601L0 601Z" fill="#00b889"></path><path d="M0 315L129 304L257 429L386 368L514 445L643 310L771 383L900 326L900 601L771 601L643 601L514 601L386 601L257 601L129 601L0 601Z" fill="#00b187"></path><path d="M0 493L129 397L257 452L386 385L514 324L643 484L771 492L900 361L900 601L771 601L643 601L514 601L386 601L257 601L129 601L0 601Z" fill="#00aa85"></path><path d="M0 435L129 403L257 375L386 513L514 411L643 472L771 488L900 447L900 601L771 601L643 601L514 601L386 601L257 601L129 601L0 601Z" fill="#00a483"></path><path d="M0 472L129 445L257 476L386 464L514 489L643 486L771 399L900 506L900 601L771 601L643 601L514 601L386 601L257 601L129 601L0 601Z" fill="#009d80"></path><path d="M0 495L129 445L257 500L386 499L514 488L643 503L771 504L900 510L900 601L771 601L643 601L514 601L386 601L257 601L129 601L0 601Z" fill="#00977d"></path><path d="M0 472L129 509L257 550L386 468L514 552L643 522L771 494L900 529L900 601L771 601L643 601L514 601L386 601L257 601L129 601L0 601Z" fill="#00907a"></path><path d="M0 552L129 516L257 555L386 541L514 551L643 552L771 561L900 551L900 601L771 601L643 601L514 601L386 601L257 601L129 601L0 601Z" fill="#008977"></path><path d="M0 553L129 549L257 559L386 545L514 567L643 569L771 538L900 545L900 601L771 601L643 601L514 601L386 601L257 601L129 601L0 601Z" fill="#038373"></path></svg>