<svg id="visual" viewBox="0 0 960 540" width="960" height="540" xmlns="http://www.w3.org/2000/svg" xmlns:xlink="http://www.w3.org/1999/xlink" version="1.1"><rect x="0" y="0" width="960" height="540" fill="#0066FF"></rect><path d="M0 189L137 335L274 374L411 395L549 271L686 330L823 271L960 350L960 0L823 0L686 0L549 0L411 0L274 0L137 0L0 0Z" fill="#00cc8e"></path><path d="M0 303L137 143L274 292L411 251L549 299L686 159L823 243L960 201L960 0L823 0L686 0L549 0L411 0L274 0L137 0L0 0Z" fill="#00c58d"></path><path d="M0 283L137 239L274 314L411 252L549 124L686 296L823 286L960 200L960 0L823 0L686 0L549 0L411 0L274 0L137 0L0 0Z" fill="#00bf8b"></path><path d="M0 205L137 129L274 205L411 209L549 135L686 157L823 141L960 281L960 0L823 0L686 0L549 0L411 0L274 0L137 0L0 0Z" fill="#00b889"></path><path d="M0 255L137 265L274 152L411 206L549 138L686 259L823 193L960 245L960 0L823 0L686 0L549 0L411 0L274 0L137 0L0 0Z" fill="#00b187"></path><path d="M0 95L137 181L274 132L411 192L549 246L686 103L823 95L960 213L960 0L823 0L686 0L549 0L411 0L274 0L137 0L0 0Z" fill="#00aa85"></path><path d="M0 147L137 176L274 200L411 76L549 168L686 113L823 99L960 136L960 0L823 0L686 0L549 0L411 0L274 0L137 0L0 0Z" fill="#00a483"></path><path d="M0 114L137 137L274 110L411 120L549 98L686 101L823 179L960 83L960 0L823 0L686 0L549 0L411 0L274 0L137 0L0 0Z" fill="#009d80"></path><path d="M0 93L137 138L274 88L411 89L549 99L686 86L823 85L960 79L960 0L823 0L686 0L549 0L411 0L274 0L137 0L0 0Z" fill="#00977d"></path><path d="M0 113L137 80L274 43L411 117L549 41L686 68L823 94L960 62L960 0L823 0L686 0L549 0L411 0L274 0L137 0L0 0Z" fill="#00907a"></path><path d="M0 42L137 74L274 38L411 51L549 42L686 42L823 33L960 42L960 0L823 0L686 0L549 0L411 0L274 0L137 0L0 0Z" fill="#008977"></path><path d="M0 40L137 44L274 35L411 47L549 28L686 26L823 54L960 47L960 0L823 0L686 0L549 0L411 0L274 0L137 0L0 0Z" fill="#038373"></path></svg>