<svg id="visual" viewBox="0 0 960 540" width="960" height="540" xmlns="http://www.w3.org/2000/svg" xmlns:xlink="http://www.w3.org/1999/xlink" version="1.1"><rect x="0" y="0" width="960" height="540" fill="#00CC8E"></rect><path d="M0 220L6.3 237.7C12.7 255.3 25.3 290.7 38.2 287C51 283.3 64 240.7 76.8 230.8C89.7 221 102.3 244 115.2 265.3C128 286.7 141 306.3 153.8 316.5C166.7 326.7 179.3 327.3 192 312.5C204.7 297.7 217.3 267.3 230.2 246.7C243 226 256 215 268.8 233.3C281.7 251.7 294.3 299.3 307.2 313.3C320 327.3 333 307.7 345.8 298.2C358.7 288.7 371.3 289.3 384 290.5C396.7 291.7 409.3 293.3 422.2 294C435 294.7 448 294.3 460.8 284C473.7 273.7 486.3 253.3 499.2 238.5C512 223.7 525 214.3 537.8 219.8C550.7 225.3 563.3 245.7 576 246.7C588.7 247.7 601.3 229.3 614.2 242.5C627 255.7 640 300.3 652.8 314.7C665.7 329 678.3 313 691.2 313.8C704 314.7 717 332.3 729.8 326.5C742.7 320.7 755.3 291.3 768 274.2C780.7 257 793.3 252 806.2 259C819 266 832 285 844.8 284.2C857.7 283.3 870.3 262.7 883.2 260.7C896 258.7 909 275.3 921.8 277C934.7 278.7 947.3 265.3 953.7 258.7L960 252L960 541L953.7 541C947.3 541 934.7 541 921.8 541C909 541 896 541 883.2 541C870.3 541 857.7 541 844.8 541C832 541 819 541 806.2 541C793.3 541 780.7 541 768 541C755.3 541 742.7 541 729.8 541C717 541 704 541 691.2 541C678.3 541 665.7 541 652.8 541C640 541 627 541 614.2 541C601.3 541 588.7 541 576 541C563.3 541 550.7 541 537.8 541C525 541 512 541 499.2 541C486.3 541 473.7 541 460.8 541C448 541 435 541 422.2 541C409.3 541 396.7 541 384 541C371.3 541 358.7 541 345.8 541C333 541 320 541 307.2 541C294.3 541 281.7 541 268.8 541C256 541 243 541 230.2 541C217.3 541 204.7 541 192 541C179.3 541 166.7 541 153.8 541C141 541 128 541 115.2 541C102.3 541 89.7 541 76.8 541C64 541 51 541 38.2 541C25.3 541 12.7 541 6.3 541L0 541Z" fill="#0066FF" stroke-linecap="round" stroke-linejoin="miter"></path></svg>